<?xml version="1.0" encoding="UTF-8" standalone="no"?>
<svg
   xmlns:dc="http://purl.org/dc/elements/1.1/"
   xmlns:cc="http://creativecommons.org/ns#"
   xmlns:rdf="http://www.w3.org/1999/02/22-rdf-syntax-ns#"
   xmlns:svg="http://www.w3.org/2000/svg"
   xmlns="http://www.w3.org/2000/svg"
   xmlns:xlink="http://www.w3.org/1999/xlink"
   xmlns:sodipodi="http://sodipodi.sourceforge.net/DTD/sodipodi-0.dtd"
   xmlns:inkscape="http://www.inkscape.org/namespaces/inkscape"
   id="svg8"
   version="1.1"
   viewBox="-0.7 0 237.88913 237.62072"
   height="898.09406"
   width="897.3562"
   sodipodi:docname="logo2.1_0-f_1_1.svg"
   inkscape:version="0.92.4 (5da689c313, 2019-01-14)">
  <sodipodi:namedview
     pagecolor="#ffffff"
     bordercolor="#666666"
     borderopacity="1"
     objecttolerance="10"
     gridtolerance="10"
     guidetolerance="10"
     inkscape:pageopacity="0"
     inkscape:pageshadow="2"
     inkscape:window-width="1920"
     inkscape:window-height="1015"
     id="namedview1515"
     showgrid="false"
     inkscape:zoom="0.5"
     inkscape:cx="491.79297"
     inkscape:cy="510.75165"
     inkscape:window-x="0"
     inkscape:window-y="36"
     inkscape:window-maximized="1"
     inkscape:current-layer="svg8"
     viewbox-x="-0.7"
     viewbox-width="53.02"
     fit-margin-top="0"
     fit-margin-left="0"
     fit-margin-right="0"
     fit-margin-bottom="0" />
  <defs
     id="defs2">
    <linearGradient
       inkscape:collect="always"
       id="linearGradient2276">
      <stop
         style="stop-color:#3a3ba2;stop-opacity:1;"
         offset="0"
         id="stop2272" />
      <stop
         style="stop-color:#704d8f;stop-opacity:1"
         offset="1"
         id="stop2274" />
    </linearGradient>
    <linearGradient
       inkscape:collect="always"
       id="linearGradient2256">
      <stop
         style="stop-color:#000065;stop-opacity:1"
         offset="0"
         id="stop2252" />
      <stop
         style="stop-color:#8986ff;stop-opacity:1"
         offset="1"
         id="stop2254" />
    </linearGradient>
    <linearGradient
       inkscape:collect="always"
       xlink:href="#linearGradient2256"
       id="linearGradient2260"
       x1="82.3936"
       y1="79.102303"
       x2="122.2278"
       y2="115.87186"
       gradientUnits="userSpaceOnUse"
       gradientTransform="matrix(1.2345731,0,0,1.2345731,-6.3198151,-3.9814535)" />
    <linearGradient
       inkscape:collect="always"
       xlink:href="#linearGradient2276"
       id="linearGradient2280"
       x1="28.059601"
       y1="1.2189422"
       x2="28.109707"
       y2="51.357483"
       gradientUnits="userSpaceOnUse"
       gradientTransform="matrix(4.6661031,0,0,4.6661031,-6.3198151,-3.9814535)" />
  </defs>
  <metadata
     id="metadata5">
    <rdf:RDF>
      <cc:Work
         rdf:about="">
        <dc:format>image/svg+xml</dc:format>
        <dc:type
           rdf:resource="http://purl.org/dc/dcmitype/StillImage" />
        <dc:title></dc:title>
      </cc:Work>
    </rdf:RDF>
  </metadata>
  <path
     style="fill:url(#linearGradient2280);fill-opacity:1;stroke-width:1.92471397"
     d="m 118.24001,238.03307 a 118.94682,118.94682 0 0 0 8.41336,-0.29714 118.94682,118.94682 0 0 0 11.8062,-1.43252 118.94682,118.94682 0 0 0 11.60219,-2.60341 118.94682,118.94682 0 0 0 11.27842,-3.75208 118.94682,118.94682 0 0 0 10.85709,-4.85642 118.94682,118.94682 0 0 0 10.31158,-5.9164 118.94682,118.94682 0 0 0 9.67293,-6.9143 118.94682,118.94682 0 0 0 8.92784,-7.84566 118.94682,118.94682 0 0 0 8.10737,-8.70162 118.94682,118.94682 0 0 0 7.1937,-9.46446 118.94682,118.94682 0 0 0 6.21355,-10.13419 118.94682,118.94682 0 0 0 5.17132,-10.71073 118.94682,118.94682 0 0 0 4.08027,-11.16755 118.94682,118.94682 0 0 0 2.94047,-11.51791 118.94682,118.94682 0 0 0 1.77847,-11.75742 118.94682,118.94682 0 0 0 0.59433,-11.87271 118.94682,118.94682 0 0 0 -0.004,-0.0977 118.94682,118.94682 0 0 0 0.004,-0.0978 118.94682,118.94682 0 0 0 -0.29275,-8.41336 118.94682,118.94682 0 0 0 -1.43255,-11.801727 118.94682,118.94682 0 0 0 -2.6034,-11.602209 118.94682,118.94682 0 0 0 -3.74765,-11.28286 118.94682,118.94682 0 0 0 -4.86085,-10.852671 118.94682,118.94682 0 0 0 -5.91641,-10.311551 118.94682,118.94682 0 0 0 -6.9143,-9.672939 118.94682,118.94682 0 0 0 -7.84569,-8.932228 118.94682,118.94682 0 0 0 -8.70165,-8.102909 118.94682,118.94682 0 0 0 -0.40772,-0.310665 l 15.67362,-27.66166947 -91.89059,-1.7e-5 a 118.94682,118.94682 0 0 0 -8.41337,0.297126 118.94682,118.94682 0 0 0 -11.80619,1.43254197 118.94682,118.94682 0 0 0 -11.602176,2.603381 118.94682,118.94682 0 0 0 -11.278443,3.752105 118.94682,118.94682 0 0 0 -10.857098,4.8564135 118.94682,118.94682 0 0 0 -10.311575,5.9164 118.94682,118.94682 0 0 0 -9.672915,6.914313 118.94682,118.94682 0 0 0 -8.927839,7.845659 118.94682,118.94682 0 0 0 -8.107358,8.701619 118.94682,118.94682 0 0 0 -7.19372,9.464489 118.94682,118.94682 0 0 0 -6.213565,10.134159 118.94682,118.94682 0 0 0 -5.1712851,10.710731 118.94682,118.94682 0 0 0 -4.080302,11.167542 118.94682,118.94682 0 0 0 -2.94045,11.517931 118.94682,118.94682 0 0 0 -1.77846498,11.757405 118.94682,118.94682 0 0 0 -0.594331,11.87275 118.94682,118.94682 0 0 0 0.0043,0.0977 118.94682,118.94682 0 0 0 -0.0043,0.0977 118.94682,118.94682 0 0 0 0.288265,8.41333 118.94682,118.94682 0 0 0 1.43254398,11.80177 118.94682,118.94682 0 0 0 2.603382,11.60219 118.94682,118.94682 0 0 0 3.747641,11.28286 118.94682,118.94682 0 0 0 4.8608651,10.85266 118.94682,118.94682 0 0 0 5.916416,10.31157 118.94682,118.94682 0 0 0 6.914295,9.67292 118.94682,118.94682 0 0 0 7.845693,8.93224 118.94682,118.94682 0 0 0 8.701654,8.10291 118.94682,118.94682 0 0 0 0.407724,0.31067 l -15.673592,27.66165 z m 0.004,-48.64847 a 70.393698,70.393698 0 0 1 -70.393553,-70.39371 70.393698,70.393698 0 0 1 70.393683,-70.393685 70.393698,70.393698 0 0 1 70.3937,70.393695 70.393698,70.393698 0 0 1 -70.3937,70.3937 z"
     id="rect11692-5"
     inkscape:connector-curvature="0" />
  <path
     style="opacity:1;fill:url(#linearGradient2260);fill-opacity:1;fill-rule:nonzero;stroke:none;stroke-width:2.49784112;stroke-linecap:round;stroke-miterlimit:4;stroke-dasharray:none;stroke-opacity:1"
     d="m 118.24426,84.362862 a 34.629159,34.629159 0 0 0 -34.62832,34.628328 34.629159,34.629159 0 0 0 0.115739,2.17738 34.629159,34.629159 0 0 0 0.0024,0.0531 c 0.0043,0.0755 0.0072,0.15123 0.01212,0.22665 6.4e-4,0.01 0.0018,0.0193 0.0024,0.0289 a 34.629159,34.629159 0 0 0 0.484666,3.90145 34.629159,34.629159 0 0 0 34.011036,28.24327 34.629159,34.629159 0 0 0 11.78392,-2.10022 34.629159,34.629159 0 0 0 22.84441,-32.53052 34.629159,34.629159 0 0 0 -16.41837,-29.405502 c -0.85229,-0.46864 -1.63888,-1.031619 -2.53425,-1.432299 a 34.629159,34.629159 0 0 0 -0.35446,-0.168775 34.629159,34.629159 0 0 0 -15.32125,-3.621736 z"
     id="path2212"
     inkscape:connector-curvature="0" />
</svg>
